<svg version="1.1" viewBox="0.0 0.0 960.0 720.0" fill="none" stroke="none" stroke-linecap="square" stroke-miterlimit="10" xmlns:xlink="http://www.w3.org/1999/xlink" xmlns="http://www.w3.org/2000/svg"><clipPath id="p.0"><path d="m0 0l960.0 0l0 720.0l-960.0 0l0 -720.0z" clip-rule="nonzero"/></clipPath><g clip-path="url(#p.0)"><path fill="#000000" fill-opacity="0.0" d="m0 0l960.0 0l0 720.0l-960.0 0z" fill-rule="evenodd"/><g filter="url(#shadowFilter-p.1)"><use xlink:href="#p.1" transform="matrix(1.0 0.0 0.0 1.0 0.0 2.0)"/></g><defs><filter id="shadowFilter-p.1" filterUnits="userSpaceOnUse"><feGaussianBlur in="SourceAlpha" stdDeviation="2.0" result="blur"/><feComponentTransfer in="blur" color-interpolation-filters="sRGB"><feFuncR type="linear" slope="0" intercept="1.0"/><feFuncG type="linear" slope="0" intercept="0.0"/><feFuncB type="linear" slope="0" intercept="0.0"/><feFuncA type="linear" slope="0.5" intercept="0"/></feComponentTransfer></filter></defs><g id="p.1"><path fill="#ffff00" d="m370.2362 227.07086l112.8504 -165.79527l112.8504 165.79527z" fill-rule="evenodd"/><path stroke="#ff0000" stroke-width="24.0" stroke-linejoin="round" stroke-linecap="butt" d="m370.2362 227.07086l112.8504 -165.79527l112.8504 165.79527z" fill-rule="evenodd"/></g><path fill="#000000" fill-opacity="0.0" d="m454.7638 73.29396l69.700745 0l0 174.51968l-69.700745 0z" fill-rule="evenodd"/><path fill="#000000" d="m478.2013 182.42397l-3.4375 -48.5625l0 -20.3125l13.9375 0l0 20.3125l-3.25 48.5625l-7.25 0zm-2.9375 22.75l0 -12.8125l12.9375 0l0 12.8125l-12.9375 0z" fill-rule="nonzero"/></g></svg>
